<svg width="239" height="160" viewBox="0 0 239 160" fill="none" xmlns="http://www.w3.org/2000/svg">
<g clip-path="url(#clip0_1583_882)">
<mask id="mask0_1583_882" style="mask-type:luminance" maskUnits="userSpaceOnUse" x="0" y="0" width="239" height="160">
<path d="M239 0H0V160H239V0Z" fill="white"/>
</mask>
<g mask="url(#mask0_1583_882)">
<path opacity="0.1" d="M139.31 31.9114C125.249 31.4086 111.858 26.8424 99.0798 21.8565C86.3011 16.8705 73.6268 11.3228 59.903 8.67576C51.076 6.97298 40.9804 6.73254 33.8697 11.4933C27.0242 16.0836 24.8125 23.9855 23.6242 31.3256C22.7291 36.847 22.2035 42.657 24.654 47.8266C26.3573 51.4157 29.377 54.4322 31.4669 57.8706C38.7383 69.8315 33.5982 84.5817 25.7207 96.2607C22.0274 101.741 17.7367 106.971 14.8842 112.799C12.0317 118.626 10.713 125.313 13.2092 131.263C15.6815 137.165 21.5755 141.589 27.9605 144.704C40.9282 151.029 56.2031 152.841 71.1087 153.867C104.094 156.138 137.253 155.154 170.325 154.17C182.565 153.805 194.857 153.436 206.897 151.532C213.584 150.474 220.486 148.795 225.341 144.745C231.503 139.602 233.03 130.891 228.9 124.443C221.974 113.625 202.83 110.939 197.983 99.3274C195.319 92.9382 198.055 85.8189 201.928 79.893C210.236 67.1801 224.16 56.0257 224.892 41.492C225.396 31.5114 218.702 21.5155 208.352 16.7918C197.505 11.8409 182.46 12.4638 174.461 20.6586C166.21 29.0873 151.726 32.3332 139.31 31.9114Z" fill="#E50914"/>
<path d="M37.2067 160C45.9908 160 53.1117 158.622 53.1117 156.922C53.1117 155.223 45.9908 153.845 37.2067 153.845C28.4227 153.845 21.3018 155.223 21.3018 156.922C21.3018 158.622 28.4227 160 37.2067 160Z" fill="#E50914"/>
<path d="M36.9399 158.055C37.9621 158.055 38.7908 156.962 38.7908 155.615C38.7908 154.268 37.9621 153.176 36.9399 153.176C35.9176 153.176 35.0889 154.268 35.0889 155.615C35.0889 156.962 35.9176 158.055 36.9399 158.055Z" fill="#3F3D56"/>
<path d="M36.9399 155.073C37.9621 155.073 38.7908 153.981 38.7908 152.634C38.7908 151.287 37.9621 150.194 36.9399 150.194C35.9176 150.194 35.0889 151.287 35.0889 152.634C35.0889 153.981 35.9176 155.073 36.9399 155.073Z" fill="#3F3D56"/>
<path d="M36.9399 152.092C37.9621 152.092 38.7908 151 38.7908 149.652C38.7908 148.305 37.9621 147.213 36.9399 147.213C35.9176 147.213 35.0889 148.305 35.0889 149.652C35.0889 151 35.9176 152.092 36.9399 152.092Z" fill="#3F3D56"/>
<path d="M36.9399 149.112C37.9621 149.112 38.7908 148.02 38.7908 146.673C38.7908 145.326 37.9621 144.233 36.9399 144.233C35.9176 144.233 35.0889 145.326 35.0889 146.673C35.0889 148.02 35.9176 149.112 36.9399 149.112Z" fill="#3F3D56"/>
<path d="M36.9399 146.131C37.9621 146.131 38.7908 145.039 38.7908 143.691C38.7908 142.344 37.9621 141.252 36.9399 141.252C35.9176 141.252 35.0889 142.344 35.0889 143.691C35.0889 145.039 35.9176 146.131 36.9399 146.131Z" fill="#3F3D56"/>
<path d="M36.9399 143.149C37.9621 143.149 38.7908 142.057 38.7908 140.71C38.7908 139.363 37.9621 138.271 36.9399 138.271C35.9176 138.271 35.0889 139.363 35.0889 140.71C35.0889 142.057 35.9176 143.149 36.9399 143.149Z" fill="#3F3D56"/>
<path d="M36.9399 140.168C37.9621 140.168 38.7908 139.076 38.7908 137.728C38.7908 136.381 37.9621 135.289 36.9399 135.289C35.9176 135.289 35.0889 136.381 35.0889 137.728C35.0889 139.076 35.9176 140.168 36.9399 140.168Z" fill="#3F3D56"/>
<path d="M43.8716 117.328C44.1253 117.004 44.3561 116.663 44.5625 116.307L39.696 115.502L44.9579 115.542C45.463 114.437 45.7386 113.24 45.7678 112.024C45.7969 110.808 45.579 109.599 45.1273 108.471L38.0688 112.156L44.5864 107.347C43.9758 106.288 43.1551 105.366 42.1754 104.639C41.1956 103.913 40.0777 103.397 38.8912 103.124C37.7047 102.851 36.475 102.826 35.2787 103.052C34.0824 103.277 32.945 103.748 31.9374 104.435C30.9297 105.122 30.0733 106.01 29.4215 107.044C28.7697 108.078 28.3364 109.237 28.1485 110.447C27.9607 111.656 28.0224 112.892 28.3297 114.077C28.637 115.262 29.1835 116.371 29.9349 117.334C29.5408 117.839 29.2014 118.385 28.9226 118.963L35.2402 122.263L28.5054 119.99C28.0317 121.396 27.9143 122.899 28.1639 124.363C28.4135 125.826 29.0223 127.204 29.9349 128.371C28.9056 129.687 28.2653 131.268 28.0871 132.934C27.909 134.599 28.2001 136.281 28.9274 137.788C29.6547 139.294 30.7886 140.565 32.1997 141.454C33.6107 142.342 35.2418 142.814 36.9065 142.814C38.5713 142.814 40.2024 142.342 41.6134 141.454C43.0244 140.565 44.1584 139.294 44.8857 137.788C45.6129 136.281 45.9041 134.599 45.7259 132.934C45.5478 131.268 44.9074 129.687 43.8781 128.371C45.1081 126.797 45.7769 124.854 45.7769 122.852C45.7769 120.851 45.1081 118.907 43.8781 117.334L43.8716 117.328Z" fill="#E50914"/>
<path opacity="0.1" d="M28.0381 122.843C28.0355 124.844 28.7045 126.788 29.9369 128.36C28.9076 129.676 28.2672 131.258 28.089 132.923C27.9109 134.588 28.202 136.27 28.9293 137.777C29.6566 139.284 30.7905 140.554 32.2016 141.443C33.6126 142.332 35.2437 142.803 36.9084 142.803C38.5732 142.803 40.2043 142.332 41.6153 141.443C43.0263 140.554 44.1603 139.284 44.8876 137.777C45.6148 136.27 45.906 134.588 45.7278 132.923C45.5497 131.258 44.9093 129.676 43.88 128.36C45.0619 126.845 28.0381 121.844 28.0381 122.843Z" fill="black"/>
<path d="M114.263 119.782C114.398 121.531 115.067 123.341 116.475 124.373C117.882 125.404 120.122 125.385 121.198 123.999C121.559 123.479 121.824 122.897 121.982 122.283C122.888 119.402 123.531 116.25 122.538 113.397C120.298 113.251 117.702 112.191 116.02 114.053C114.663 115.57 114.107 117.76 114.263 119.782Z" fill="#3F3D56"/>
<path d="M124.661 102.158C124.363 104.7 123.857 107.231 123.909 109.791C123.929 110.779 124.033 111.758 124.035 112.75C124.039 115.327 123.364 117.859 122.08 120.088C121.944 120.35 121.763 120.586 121.545 120.783C121.03 121.203 120.255 121.168 119.677 120.847C119.112 120.493 118.654 119.993 118.35 119.398C116.731 116.608 116.685 113.218 116.045 110.055C115.554 107.636 114.693 105.29 114.383 102.842C114.181 101.266 114.211 99.6594 113.889 98.1031C113.792 97.6331 113.518 96.9271 113.338 96.2342C113.172 95.6156 113.081 95.0079 113.251 94.5904C113.596 93.7357 114.728 94.068 115.464 94.1204C118.058 94.3139 120.663 94.3073 123.255 94.1008C123.511 94.0811 123.803 94.0702 123.983 94.2538C124.062 94.3465 124.121 94.4543 124.157 94.5707C124.363 95.139 124.521 95.724 124.628 96.3194C124.987 98.2233 124.887 100.219 124.661 102.158Z" fill="#FABDBD"/>
<g opacity="0.1">
<path opacity="0.1" d="M123.661 94.101C123.528 94.0868 123.393 94.0868 123.259 94.101C122.017 94.2015 120.772 94.2518 119.529 94.2583C120.907 94.2613 122.284 94.2088 123.661 94.101Z" fill="black"/>
<path opacity="0.1" d="M120.116 120.847C119.551 120.494 119.092 119.993 118.788 119.398C117.17 116.609 117.124 113.218 116.483 110.055C115.992 107.636 115.132 105.29 114.821 102.842C114.619 101.266 114.65 99.6595 114.328 98.1032C114.231 97.6332 113.957 96.9272 113.776 96.2343C113.611 95.6157 113.52 95.008 113.69 94.5905C113.762 94.4194 113.883 94.2738 114.038 94.1725C114.192 94.0712 114.374 94.0189 114.559 94.0222C114.009 93.9851 113.472 94.0506 113.255 94.5905C113.086 95.008 113.177 95.6157 113.342 96.2343C113.522 96.9272 113.796 97.6332 113.894 98.1032C114.215 99.6595 114.185 101.266 114.387 102.842C114.698 105.292 115.558 107.638 116.049 110.055C116.69 113.218 116.735 116.613 118.354 119.398C118.658 119.993 119.117 120.494 119.681 120.847C120.028 121.04 120.426 121.121 120.82 121.079C120.573 121.046 120.334 120.968 120.116 120.847Z" fill="black"/>
</g>
<path d="M132.875 115.564C131.572 118.187 131.789 121.903 131.789 121.903C132.006 130.646 128.53 149.008 128.53 149.008H125.489C125.489 149.008 125.054 128.679 125.489 126.93C125.923 125.182 125.271 119.061 124.62 110.537C124.135 104.198 125.454 98.4531 126.162 95.9329C126.405 95.0585 126.575 94.5798 126.575 94.5798C126.575 94.5798 131.572 87.1479 134.396 90.6453C135.048 91.4584 135.393 93.1 135.513 95.1722C135.899 102.01 133.874 113.551 132.875 115.564Z" fill="#FABDBD"/>
<path opacity="0.1" d="M135.513 95.172C135.393 93.0998 135.052 91.4561 134.396 90.6451C133.766 89.867 133.027 89.6309 132.263 89.7336C132.855 89.8326 133.387 90.1594 133.744 90.6451C134.396 91.4583 134.741 93.0998 134.861 95.172C135.248 102.009 133.223 113.551 132.223 115.564C130.92 118.187 131.137 121.903 131.137 121.903C131.354 130.646 127.878 149.007 127.878 149.007H128.53C128.53 149.007 132.006 130.646 131.789 121.903C131.789 121.903 131.572 118.187 132.875 115.564C133.875 113.551 135.899 102.009 135.513 95.172Z" fill="black"/>
<path d="M123.907 148.21C123.664 148.401 123.454 148.632 123.286 148.892C122.897 149.631 123.449 150.514 124.04 151.102C124.631 151.69 125.343 152.319 125.343 153.156C125.343 153.83 124.837 154.407 124.27 154.765C123.966 154.957 123.583 155.202 123.646 155.565C123.669 155.657 123.708 155.744 123.762 155.821C124.248 156.571 125.111 157.01 125.984 157.176C126.857 157.342 127.759 157.27 128.648 157.198C128.781 157.203 128.911 157.158 129.012 157.071C129.077 156.984 129.111 156.878 129.11 156.77C129.154 156.306 129.125 155.816 129.327 155.399C129.61 154.828 130.259 154.538 130.631 154.026C131.152 153.327 131.081 152.354 130.883 151.504C130.449 149.652 129.482 147.541 128.031 146.258C126.349 144.784 125.03 147.145 123.907 148.21Z" fill="#3F3D56"/>
<path d="M130.49 38.0316C131.702 36.2086 131.387 33.6599 130.149 31.8457C128.91 30.0314 126.92 28.8904 124.867 28.1538C122.1 27.1614 119.047 26.8226 116.203 27.568C113.94 28.1603 111.906 29.3997 109.773 30.3571C105.998 32.0515 101.895 32.8731 97.7626 32.7616C93.1765 32.6326 88.1514 31.45 84.3039 33.9725C77.2606 38.5825 80.3934 51.1293 73.7303 56.2682C71.9337 57.654 69.6721 58.2595 67.6734 59.3284C65.6747 60.3973 63.7802 62.2574 63.828 64.5351C63.8497 65.628 64.3277 66.6707 64.9143 67.5953C67.4127 71.5801 72.0836 74.0457 76.761 73.9998C81.4384 73.9539 86.0028 71.4511 88.6989 67.5997C89.3746 66.6357 89.9698 65.5625 90.9496 64.9198C92.9049 63.6302 95.4815 64.5329 97.8148 64.7253C103.01 65.1515 108.206 61.2279 109.24 56.0802C109.675 53.8834 109.599 51.2582 111.357 49.879C112.775 48.7664 114.772 49.0046 116.571 48.8144C119.86 48.4713 122.456 46.41 124.242 43.717C125.061 42.482 125.156 41.0066 126.273 40.0339C127.477 38.965 129.338 39.7541 130.49 38.0316Z" fill="#3F3D56"/>
<g opacity="0.1">
<path opacity="0.1" d="M93.4188 33.1836C95.3239 33.2362 97.2292 33.0897 99.1042 32.7464C98.5872 32.7617 98.0658 32.7617 97.5466 32.7464C93.9467 32.6459 90.0775 31.8983 86.7188 32.7989C88.9346 32.8207 91.2267 33.1224 93.4188 33.1836Z" fill="black"/>
<path opacity="0.1" d="M86.601 65.355C85.6212 65.9977 85.026 67.0709 84.3503 68.0349C82.2736 70.9678 79.2384 73.073 75.7754 73.9826C76.0296 73.9935 76.2838 74.0001 76.5401 73.9979C81.2219 73.952 85.782 71.4492 88.4781 67.5977C89.1537 66.6338 89.749 65.5605 90.7288 64.9179L90.8982 64.8129C89.3645 64.6009 87.8589 64.5266 86.601 65.355Z" fill="black"/>
<path opacity="0.1" d="M129.93 31.8393C128.694 30.0338 126.702 28.8841 124.649 28.1474C121.881 27.1551 118.828 26.8162 115.985 27.5616C115.919 27.5769 115.856 27.5966 115.793 27.6141C117.408 27.7047 119 28.0316 120.521 28.5846C122.574 29.3212 124.566 30.471 125.802 32.2765C127.038 34.082 127.356 36.6482 126.143 38.4625C124.992 40.1915 123.13 39.4024 121.911 40.4669C120.795 41.4396 120.699 42.915 119.88 44.1501C118.344 46.4605 116.206 48.3032 113.545 49.0026C114.46 48.8934 115.424 48.9065 116.337 48.8103C119.626 48.4671 122.222 46.4059 124.008 43.7129C124.827 42.4779 124.922 41.0024 126.039 40.0297C127.258 38.9652 129.12 39.7543 130.271 38.0253C131.486 36.2023 131.171 33.6448 129.93 31.8393Z" fill="black"/>
<path opacity="0.1" d="M112.21 49.2474C110.422 49.4354 108.425 49.1993 106.996 50.3119C105.238 51.6912 105.323 54.3164 104.88 56.5132C104.117 60.3537 101.019 63.521 97.3418 64.6992L97.6003 64.7233C102.794 65.1495 107.991 61.2259 109.025 56.0782C109.46 53.8814 109.384 51.2562 111.141 49.8769C111.545 49.5732 112.003 49.3506 112.49 49.2212C112.392 49.2234 112.303 49.2387 112.21 49.2474Z" fill="black"/>
</g>
<path d="M164.702 30.2064C164.702 30.2064 159.488 40.6985 157.75 44.633C156.012 48.5675 140.153 54.4693 137.981 54.6879C137.398 54.7683 136.855 55.0314 136.429 55.4399C135.202 56.5328 134.505 58.4039 134.505 58.4039C134.505 58.4039 135.374 64.3057 134.287 74.142C134.266 74.3322 134.246 74.5223 134.229 74.706C133.281 84.0658 135.265 86.2735 135.265 86.2735C135.265 86.2735 114.192 94.3611 114.843 83.869C115.048 80.5662 115.017 78.153 114.815 76.1355C114.594 74.0701 114.176 72.0308 113.568 70.0457C113.053 68.2336 112.438 66.2467 111.802 63.5406C111.495 62.1904 111.092 60.8645 110.594 59.5733C110.579 59.534 110.563 59.4946 110.55 59.4575C109.464 56.7448 108.378 55.8683 107.757 55.5841C107.17 55.3274 106.611 55.011 106.088 54.6398C104.081 53.1819 99.7726 49.914 95.936 46.0538C90.722 40.8078 85.5079 28.3484 85.5079 28.3484C85.5079 28.3484 83.9872 21.1351 87.4632 15.2333C90.9392 9.33147 89.4185 26.8183 89.4185 26.8183C89.4185 26.8183 95.7187 35.3431 97.2395 39.2777C98.0216 41.3018 99.2643 42.3379 100.281 42.8756C101.961 43.7554 103.569 44.7669 105.091 45.9008C106.119 46.6829 107.2 47.3928 108.326 48.0254C110.755 49.337 113.664 50.8168 116.088 51.2059C116.467 51.2688 116.849 51.3017 117.233 51.3042C117.415 51.3101 117.596 51.2737 117.762 51.1978C117.928 51.122 118.074 51.0089 118.189 50.8671C118.841 50.0954 118.826 48.4342 118.676 47.068C118.596 46.3603 118.477 45.6576 118.319 44.9631C118.319 44.9631 125.38 40.4821 125.163 45.9467C125.129 46.5505 125.185 47.1561 125.328 47.7435C125.443 48.2826 125.699 48.7812 126.069 49.1883C126.439 49.5954 126.91 49.8964 127.433 50.0605C128.281 50.3107 129.178 50.34 130.04 50.1457C130.309 50.0995 130.568 50.0102 130.809 49.8812C131.461 49.4441 137.978 47.4768 139.934 47.2582C141.889 47.0396 151.665 42.2307 151.665 42.2307L162.311 27.367C162.311 27.367 162.093 18.6235 166.438 15.1262C170.783 11.6288 164.702 30.2064 164.702 30.2064Z" fill="#FABDBD"/>
<g opacity="0.1">
<path opacity="0.1" d="M134.229 73.3946C134.039 75.1511 133.956 76.9176 133.979 78.6843C134.001 77.5302 134.077 76.2121 134.229 74.7061C134.246 74.5225 134.266 74.3323 134.287 74.1421C134.667 70.7758 134.849 67.3898 134.831 64.002C134.797 66.9522 134.616 69.8988 134.287 72.8306C134.274 73.0208 134.246 73.211 134.229 73.3946Z" fill="black"/>
<path opacity="0.1" d="M118.545 44.8232C118.4 44.9085 118.328 44.961 118.328 44.961C118.539 45.896 118.679 46.846 118.745 47.8026C118.789 46.8051 118.722 45.8058 118.545 44.8232Z" fill="black"/>
<path opacity="0.1" d="M89.5209 25.6312C89.6274 24.1011 89.786 21.3579 89.7556 18.9185C89.7186 22.1798 89.4297 25.5066 89.4297 25.5066L89.5209 25.6312Z" fill="black"/>
<path opacity="0.1" d="M114.86 83.6133C114.86 83.6985 114.86 83.7838 114.844 83.869C114.193 94.3611 135.266 86.2735 135.266 86.2735C135.02 85.9386 134.834 85.5627 134.716 85.1631C131.542 86.2997 115.592 91.5851 114.86 83.6133Z" fill="black"/>
<path opacity="0.1" d="M164.704 28.8948C164.704 28.8948 159.49 39.3869 157.752 43.3214C156.014 47.256 140.154 53.1578 137.982 53.3764C137.399 53.4567 136.856 53.7198 136.431 54.1283C135.203 55.2212 134.506 57.0923 134.506 57.0923C134.506 57.0923 134.558 57.4486 134.621 58.1262C134.864 57.5645 135.49 56.2748 136.431 55.4398C136.856 55.0314 137.399 54.7683 137.982 54.6879C140.154 54.4693 156.014 48.5675 157.752 44.633C159.49 40.6984 164.704 30.2063 164.704 30.2063C164.704 30.2063 168.378 18.982 167.973 15.6245C167.639 19.9263 164.704 28.8948 164.704 28.8948Z" fill="black"/>
<path opacity="0.1" d="M114.815 74.8242C114.594 72.7588 114.176 70.7195 113.568 68.7344C113.053 66.9223 112.438 64.9354 111.802 62.2293C111.496 60.8791 111.092 59.5532 110.594 58.262C110.579 58.2226 110.564 58.1833 110.551 58.1461C109.464 55.4335 108.378 54.5569 107.757 54.2728C107.17 54.016 106.611 53.6996 106.088 53.3285C104.081 51.8705 99.7732 48.6027 95.9366 44.7425C90.7225 39.4964 85.5085 27.0371 85.5085 27.0371C85.3158 25.9852 85.2083 24.9194 85.187 23.8501C85.1339 25.3568 85.2417 26.865 85.5085 28.3486C85.5085 28.3486 90.7225 40.8079 95.9366 46.054C99.7732 49.9142 104.081 53.1821 106.088 54.64C106.615 55.0119 107.179 55.3283 107.77 55.5843C108.389 55.8685 109.473 56.745 110.564 59.4576C110.577 59.4948 110.592 59.5341 110.607 59.5735C111.103 60.8648 111.504 62.1908 111.808 63.5408C112.445 66.2469 113.06 68.2338 113.575 70.0459C114.183 72.031 114.601 74.0703 114.822 76.1357C114.913 77.0494 114.967 78.0439 114.982 79.1631C115.009 77.7148 114.953 76.2661 114.815 74.8242Z" fill="black"/>
</g>
<path d="M136.332 65.3283C136 65.88 135.709 66.4558 135.463 67.0508C135.135 67.9688 135.132 68.9678 135.072 69.9405C134.985 71.3055 134.778 72.6602 134.455 73.9887C134.402 74.2334 134.33 74.4732 134.237 74.7056C134.172 74.8622 134.087 75.0092 133.983 75.1428C133.867 75.2854 133.731 75.4098 133.579 75.5122C133.346 75.6687 133.099 75.804 132.843 75.9166C129.818 77.3374 126.521 78.5921 123.221 78.1025C121.825 77.8571 120.475 77.4001 119.217 76.7472C118.022 76.1636 116.67 75.4707 115.432 75.956C115.242 76.053 115.037 76.1173 114.826 76.1461C114.785 76.1468 114.744 76.1432 114.704 76.1352C114.296 76.0565 114.296 74.6707 114.202 74.2619C113.846 72.6925 113.792 71.4203 113.579 70.0563C113.466 69.302 113.291 68.5585 113.055 67.8333C112.186 65.1884 111.923 62.3687 111.923 59.597C111.923 59.4593 110.946 59.597 110.62 59.5839C110.537 59.5839 110.492 59.5708 110.511 59.5424C110.53 59.5152 110.552 59.4903 110.577 59.4681C110.69 59.3751 110.823 59.3087 110.965 59.2735L111.222 59.197C112.564 58.8145 114.046 58.6549 115.05 57.7041C116.093 56.7226 116.353 55.1554 116.308 53.7215C116.295 53.2602 116.071 52.1411 116.108 51.2121C116.486 51.275 116.869 51.3079 117.253 51.3105C117.435 51.3163 117.616 51.2799 117.781 51.2041C117.947 51.1283 118.093 51.0151 118.209 50.8733C118.571 51.5793 118.885 52.3097 119.147 53.0591C119.516 53.9728 119.799 54.9346 120.34 55.7609C121.209 57.1073 122.812 57.9926 124.407 57.8571C126.001 57.7216 127.485 56.4887 127.77 54.9062C128.02 53.5182 127.44 51.5203 127.453 50.0776C128.3 50.3278 129.197 50.3572 130.06 50.1629C130.096 50.252 130.127 50.3432 130.153 50.4361C130.642 52.1236 131.294 54.0603 132.934 54.6592C133.994 55.0439 135.248 54.7554 136.227 55.3149C136.303 55.3585 136.375 55.4067 136.445 55.4592C136.671 55.6284 136.866 55.8363 137.02 56.0734C137.423 56.742 137.662 57.4971 137.718 58.2768C137.969 60.7139 137.486 63.1707 136.332 65.3283Z" fill="#E50914"/>
<path opacity="0.1" d="M125.328 47.7411C124.244 48.1614 123.077 48.3192 121.922 48.2019C120.766 48.0846 119.654 47.6953 118.676 47.0656C118.596 46.3579 118.477 45.6552 118.319 44.9607C118.319 44.9607 125.38 40.4797 125.163 45.9443C125.129 46.5482 125.185 47.1537 125.328 47.7411Z" fill="black"/>
<path d="M122.662 47.8023C126.741 47.8023 130.048 44.4749 130.048 40.3704C130.048 36.2658 126.741 32.9385 122.662 32.9385C118.582 32.9385 115.275 36.2658 115.275 40.3704C115.275 44.4749 118.582 47.8023 122.662 47.8023Z" fill="#FABDBD"/>
<path d="M109.738 58.8409C109.738 58.8409 124.076 49.6603 168.613 59.4967C213.149 69.333 239.002 61.4639 239.002 61.4639V71.7375C239.002 71.7375 189.034 77.2021 169.916 71.7375C150.798 66.2728 123.583 63.1208 114.052 71.5823L109.738 58.8409Z" fill="#F86D70"/>
<path opacity="0.1" d="M109.738 58.8409C109.738 58.8409 124.076 49.6603 168.613 59.4967C213.149 69.333 239.002 61.4639 239.002 61.4639V71.7375C239.002 71.7375 189.034 77.2021 169.916 71.7375C150.798 66.2728 123.583 63.1208 114.052 71.5823L109.738 58.8409Z" fill="black"/>
<path d="M110.172 59.2779C110.172 59.2779 124.076 50.0974 168.613 59.9337C213.149 69.77 238.568 61.901 238.568 61.901L238.785 71.3001C238.785 71.3001 189.252 76.7647 170.134 71.3001C151.016 65.8355 124.018 62.0277 114.487 70.4892L110.172 59.2779Z" fill="#F86D70"/>
<path d="M104.945 73.3985C104.945 73.3985 90.606 82.5791 46.0696 72.7427C1.53313 62.9064 3.70564 70.7755 3.70564 70.7755V60.502C3.70564 60.502 25.648 55.0373 44.7661 60.502C63.8842 65.9666 91.0992 69.1186 100.63 60.6572L104.945 73.3985Z" fill="#F86D70"/>
<path opacity="0.1" d="M104.945 73.3985C104.945 73.3985 90.606 82.5791 46.0696 72.7427C1.53313 62.9064 3.70564 70.7755 3.70564 70.7755V60.502C3.70564 60.502 25.648 55.0373 44.7661 60.502C63.8842 65.9666 91.0992 69.1186 100.63 60.6572L104.945 73.3985Z" fill="black"/>
<path d="M104.511 72.9617C104.511 72.9617 90.607 82.1422 46.0705 72.3059C1.53407 62.4696 4.14108 70.3386 4.14108 70.3386L3.92383 60.9395C3.92383 60.9395 25.4317 55.4748 44.5498 60.9395C63.6679 66.4041 90.6656 70.2119 100.196 61.7504L104.511 72.9617Z" fill="#F86D70"/>
<path d="M116.31 41.6011C116.092 40.2371 115.758 38.519 116.892 37.7387C117.296 37.4919 117.764 37.3703 118.237 37.389C120.585 37.3649 122.829 39.0109 125.132 38.53C125.865 38.3755 126.538 38.0112 127.07 37.4811C127.602 36.9509 127.971 36.2774 128.131 35.5415C128.292 34.8057 128.238 34.0388 127.976 33.3331C127.713 32.6274 127.254 32.013 126.653 31.5637C125.747 30.8861 124.602 30.6412 123.494 30.4117C120.581 29.8084 117.539 29.2073 114.663 29.9745C111.787 30.7418 109.158 33.3364 109.388 36.3135C109.497 37.7387 110.218 39.0327 110.972 40.2481C111.545 41.1705 113.779 45.4941 114.863 45.5597C116.392 45.6493 116.46 42.4929 116.31 41.6011Z" fill="#3F3D56"/>
<path d="M134.613 82.5576C134.613 82.5576 119.623 86.2736 114.626 82.5576C114.626 82.5576 112.454 91.0824 113.105 95.4541C113.105 95.4541 123.751 96.1099 124.837 96.7657C124.837 96.7657 125.054 95.017 126.14 95.8913C126.14 95.8913 129.834 91.5196 136.568 95.4541C136.568 95.4541 137.872 85.1806 134.613 82.5576Z" fill="#E50914"/>
<path opacity="0.1" d="M126.657 31.5638C126.503 31.4511 126.341 31.3489 126.173 31.2578C126.621 31.7706 126.928 32.3928 127.062 33.0622C127.197 33.7316 127.154 34.4248 126.939 35.0724C126.724 35.7201 126.343 36.2996 125.835 36.7529C125.328 37.2062 124.711 37.5176 124.046 37.6558C121.743 38.1367 119.499 36.4907 117.151 36.5148C116.678 36.4961 116.21 36.6178 115.806 36.8645C114.672 37.6449 115.004 39.3629 115.221 40.7269C115.365 41.6187 115.306 44.7751 113.781 44.6899H113.755C114.174 45.2035 114.565 45.5511 114.867 45.5642C116.388 45.6495 116.451 42.504 116.308 41.6013C116.09 40.2373 115.758 38.5192 116.892 37.7389C117.296 37.4921 117.764 37.3705 118.237 37.3891C120.585 37.3651 122.829 39.011 125.132 38.5301C125.865 38.3756 126.538 38.0114 127.07 37.4812C127.602 36.9511 127.971 36.2776 128.131 35.5417C128.292 34.8058 128.238 34.039 127.976 33.3333C127.713 32.6276 127.254 32.0131 126.653 31.5638H126.657Z" fill="black"/>
<g opacity="0.1">
<path opacity="0.1" d="M18.7619 21.181C18.7619 21.181 2.51808 14.3087 0.389019 26.7025C0.389019 26.7025 -0.721134 28.6326 0.823521 30.2282C0.823521 30.2282 1.15592 29.3736 2.72664 30.2589C3.28736 30.5691 3.88236 30.8119 4.49941 30.9824C5.33324 31.2138 6.21924 31.1662 7.02386 30.8468C7.02386 30.8468 12.3661 30.5561 16.8588 23.5242C16.8588 23.5242 18.7837 22.3264 18.8814 21.8783L15.6618 22.0969C15.6618 22.0969 15.9073 24.4685 14.5755 25.8915C14.5755 25.8915 15.7595 22.2127 15.1903 22.1078C15.0752 22.086 13.4893 22.298 13.4893 22.298C13.4893 22.298 13.8999 26.4205 11.7512 28.5539C11.7512 28.5539 13.7456 24.3592 12.8766 22.3723L10.5021 22.8335C10.5021 22.8335 11.1538 27.1702 8.80315 29.6949C8.80315 29.6949 10.7345 25.2358 9.98934 22.969L7.71255 23.7385C7.71255 23.7385 8.26219 27.9834 6.29607 30.0774C6.29607 30.0774 8.01236 24.698 7.20418 23.957C7.20418 23.957 5.15768 24.792 4.71883 25.2686C4.71883 25.2686 5.04471 28.3287 3.79334 29.4217C3.79334 29.4217 4.56241 25.7057 4.18222 25.5527C4.18222 25.5527 1.80332 27.3539 1.07988 28.908C1.07988 28.908 1.98364 26.5342 3.88241 25.192C3.88241 25.192 2.28779 24.921 1.05815 25.5921C1.05815 25.5921 1.88153 24.0161 4.45813 24.7636C4.45813 24.7636 6.36777 23.4346 6.75013 23.4521C6.75013 23.4521 4.31257 22.3592 2.55067 22.4925C2.55067 22.4925 4.43858 21.3996 7.34757 23.227L9.61567 22.4007C9.61567 22.4007 6.4677 20.7766 4.88829 20.7832C4.88829 20.7832 6.98693 19.9679 10.2066 22.2411L12.529 21.7625C12.529 21.7625 9.92199 20.1558 8.16443 19.7821C8.16443 19.7821 10.2739 19.4476 13.2003 21.6532L14.7906 21.5176C14.7906 21.5176 12.8657 20.3788 12.2835 20.1012C11.7013 19.8236 11.7273 19.6422 11.7273 19.6422C13.1131 19.8843 14.4047 20.5094 15.4575 21.4477C15.4575 21.4477 18.7467 21.3843 18.7619 21.181Z" fill="#E50914"/>
</g>
<g opacity="0.1">
<path opacity="0.1" d="M18.1628 8.86127C18.1628 8.86127 12.397 -4.53145 4.1219 1.6108C4.1219 1.6108 2.36868 2.12229 2.38389 3.94966C2.38389 3.94966 3.06606 3.63271 3.49621 5.05789C3.65704 5.564 3.87576 6.0496 4.14797 6.50492C4.50799 7.11736 5.05626 7.59534 5.71 7.86671C5.71 7.86671 9.04698 10.7564 15.7036 9.15418C15.7036 9.15418 17.5263 9.54763 17.8391 9.3356L15.8035 7.61752C15.8035 7.61752 14.6086 9.16729 13.0053 9.2438C13.0053 9.2438 15.7926 7.73556 15.5124 7.34648C15.4559 7.26779 14.3957 6.48525 14.3957 6.48525C14.3957 6.48525 12.3036 9.16948 9.83342 9.21101C9.83342 9.21101 13.3942 7.86015 14.0025 6.1836L12.3318 5.09068C12.3318 5.09068 10.2592 8.03939 7.43715 8.1924C7.43715 8.1924 11.1087 6.6623 11.9495 4.87865L10.1615 4.03054C10.1615 4.03054 8.08455 6.87215 5.73607 6.97925C5.73607 6.97925 9.80084 4.76717 9.73783 3.86441C9.73783 3.86441 8.04979 3.1868 7.51536 3.22614C7.51536 3.22614 5.97939 5.2262 4.60854 5.16937C4.60854 5.16937 7.16993 3.40101 7.02871 3.09281C7.02871 3.09281 4.5955 2.7999 3.28548 3.31139C3.28548 3.31139 5.16687 2.41956 7.05479 2.71247C7.05479 2.71247 6.26182 1.63484 5.15601 1.33538C5.15601 1.33538 6.53773 0.869794 7.64571 2.79116C7.64571 2.79116 9.53145 3.09499 9.75087 3.32232C9.75087 3.32232 8.92531 1.2698 7.79561 0.345189C7.79561 0.345189 9.53362 0.782362 10.2288 3.52998L12.0429 4.34093C12.0429 4.34093 11.0935 1.57145 10.1398 0.673067C10.1398 0.673067 11.8495 1.39003 12.4752 4.58574L14.1241 5.63277C14.1241 5.63277 13.4832 3.18461 12.6534 1.96491C12.6534 1.96491 14.0959 2.97258 14.5869 5.96065L15.608 6.79127C15.608 6.79127 15.1083 5.01199 14.9193 4.51361C14.7303 4.01524 14.8498 3.92343 14.8498 3.92343C15.5348 4.86221 15.9477 5.97374 16.0425 7.13445C16.0425 7.13445 18.0455 8.97494 18.1628 8.86127Z" fill="#E50914"/>
</g>
</g>
</g>
<defs>
<clipPath id="clip0_1583_882">
<rect width="239" height="160" fill="white"/>
</clipPath>
</defs>
</svg>
