<svg width="3728" height="1327" fill="none" xmlns="http://www.w3.org/2000/svg"><path d="M63 264.908v504.821m550.285 0c-217.619 11.294-378.252-238.399-208.82-432.703 169.432-194.304 483.952-14.558 424.884 240.367M1302.36 286.73c212.58-47.891 413.08 171.082 278.9 391.213-134.17 220.131-474.53 96.094-459.38-165.145m770.76 53.936V288.948m5.77 0l442.97 496.809m0-12.07V288.948m300.2-7.717v504.821m647-43.019c-181.33 78.723-315.04.18-358.19-127.367-50.41-149.041 32.78-249.883 107.27-290.379" stroke="#0D0D0D" stroke-width="110" stroke-linecap="round"/><circle cx="751.632" cy="709.007" r="64.643" fill="#FF6D7D"/><circle cx="1892.64" cy="786.053" r="64.643" fill="#FF6D7D"/><circle cx="3181.99" cy="259.643" r="64.643" fill="#FF6D7D"/><path d="M3414.58 232V84.633h-48.81V68.52h117.24v16.114h-48.81V232h-19.62zm92.39 0V68.519h22.88l58.86 113.97 58.38-113.97h23.12V232h-19.61V103.551l-54.65 105.095h-14.72l-54.65-104.862V232h-19.61zM21.312 1238v-201.6h61.92c35.52 0 61.632 9.02 78.336 27.07 16.896 18.05 25.344 42.82 25.344 74.31 0 30.91-8.448 55.39-25.344 73.44-16.704 17.85-42.816 26.78-78.336 26.78h-61.92zm24.192-20.16h37.152c19.584 0 35.136-3.17 46.656-9.5 11.712-6.53 20.064-15.75 25.056-27.65 4.992-12.1 7.488-26.4 7.488-42.91 0-16.9-2.496-31.4-7.488-43.49-4.992-12.1-13.344-21.41-25.056-27.94-11.52-6.53-27.072-9.79-46.656-9.79H45.504v161.28zM704.243 1238v-201.6h124.704v19.87H728.435v70.27h91.872v19.59h-91.872v72h100.512V1238H704.243zm709.187 3.46c-14.78 0-27.65-2.69-38.59-8.07-10.95-5.37-19.39-12.86-25.35-22.46-5.95-9.6-8.92-20.74-8.92-33.41h25.34c0 7.87 1.82 15.17 5.47 21.89 3.65 6.53 8.93 11.81 15.84 15.84 7.11 3.84 15.84 5.76 26.21 5.76 13.63 0 24.19-3.27 31.68-9.79 7.49-6.53 11.23-14.69 11.23-24.48 0-8.07-1.73-14.5-5.18-19.3-3.46-4.99-8.16-9.02-14.11-12.1-5.76-3.07-12.48-5.76-20.16-8.06-7.49-2.3-15.36-4.9-23.62-7.78-15.55-5.37-27.07-12-34.56-19.87-7.49-8.06-11.23-18.53-11.23-31.39-.19-10.75 2.3-20.26 7.49-28.51 5.18-8.45 12.48-14.98 21.88-19.59 9.6-4.8 20.93-7.2 33.99-7.2 12.86 0 24 2.4 33.41 7.2 9.6 4.8 16.99 11.43 22.17 19.88 5.38 8.44 8.16 18.04 8.35 28.8h-25.34c0-5.57-1.44-11.04-4.32-16.42-2.88-5.57-7.3-10.08-13.25-13.54-5.76-3.45-13.05-5.18-21.89-5.18-10.94-.19-19.96 2.59-27.07 8.35-6.91 5.76-10.37 13.73-10.37 23.91 0 8.64 2.4 15.26 7.2 19.87 5 4.61 11.91 8.45 20.74 11.52 8.83 2.88 19.01 6.24 30.53 10.08 9.6 3.45 18.24 7.49 25.92 12.09 7.68 4.61 13.63 10.56 17.85 17.86 4.42 7.3 6.63 16.61 6.63 27.94 0 9.6-2.5 18.72-7.49 27.36-4.99 8.44-12.58 15.36-22.75 20.73-9.99 5.38-22.56 8.07-37.73 8.07zm584.68-3.46v-201.6h24.19V1238h-24.19zm636.02 3.46c-18.81 0-35.33-4.32-49.53-12.96-14.21-8.84-25.25-21.03-33.12-36.58-7.88-15.74-11.81-33.89-11.81-54.43 0-20.55 3.93-38.69 11.81-54.43 8.06-15.75 19.39-28.04 33.98-36.87 14.78-8.83 32.16-13.25 52.13-13.25 22.65 0 41.47 5.48 56.45 16.42 15.16 10.94 24.96 26.02 29.37 45.22h-27.93c-2.69-12.1-9.12-21.7-19.3-28.8-9.98-7.11-22.85-10.66-38.59-10.66-14.79 0-27.65 3.36-38.59 10.08-10.95 6.53-19.49 15.94-25.64 28.22-5.95 12.29-8.92 26.98-8.92 44.07s2.97 31.77 8.92 44.06c5.96 12.29 14.21 21.79 24.77 28.51 10.56 6.53 22.85 9.8 36.87 9.8 21.5 0 37.72-6.24 48.67-18.72 10.94-12.68 17.18-29.96 18.72-51.84h-58.18v-19.01h82.95V1238h-22.18l-2.02-33.12c-7.29 11.71-16.22 20.74-26.78 27.07-10.56 6.34-24.58 9.51-42.05 9.51zm613.68-3.46v-201.6H3272l107.43 161.57V1036.4h24.19V1238h-24.19L3272 1076.43V1238h-24.19z" fill="#0D0D0D"/></svg>